<svg version="1.2" xmlns="http://www.w3.org/2000/svg" viewBox="0 0 1594 1436" width="1594" height="1436">
<style>.a{fill:#0055ff}</style>
<path fill-rule="evenodd" class="a" d="m1592.3 815-336.1 576.5c-16.1 27.6-45.5 44.5-77.4 44.5H455.6c-31.8 0-61.3-16.9-77.4-44.5l-366-628.1a90.41 90.41 0 0 1 0-90.8l366-628.1C394.3 17 423.8 0 455.6 0h723.2c31.9 0 61.3 17 77.4 44.5l337 578.5h-333.8l-196.2-336.5h-492L317 713.4l253.7 436.1h492.6l195.1-334.6z"/>
<path d="M812.3 713.4 654.9 439.7h315.2l157.6 273.7z" style="fill:#cd34db"/>
<path class="a" d="M1127.7 713.4 970.1 987.2H654.9l157.4-273.8z"/>
<path d="M812.3 713.4 654.9 987.2 497.3 713.4l157.6-273.7z" style="fill:#7300a8"/>
</svg>